<svg width="19" height="19" viewBox="0 0 19 19" fill="none" xmlns="http://www.w3.org/2000/svg">
<path fill-rule="evenodd" clip-rule="evenodd" d="M5.9423 0.0109573C2.66417 0.0109573 0 2.67359 0 5.94983V9.53287C0 10.3766 1.01962 10.793 1.60069 10.1903C4.41835 7.30854 8.17888 5.36909 12.3999 4.87601C13.5182 4.74452 14.5049 5.62111 14.5049 6.74971V12.6228C14.5049 13.4994 13.7923 14.3212 12.9371 14.4746C10.9088 14.8472 9.13272 15.9429 7.8719 17.4769C7.37853 18.0905 7.81708 19 8.60646 19C9.79054 19 11.4351 19 13.0577 19C16.3358 19 19 16.3374 19 13.0611V5.93887C19 2.66263 16.3358 0 13.0577 0H5.93133L5.9423 0.0109573Z" fill="#34D399"/>
</svg>
